<?xml version="1.0" encoding="UTF-8"?>
<svg id="Layer_1" data-name="Layer 1" xmlns="http://www.w3.org/2000/svg" version="1.1" viewBox="0 0 512 512">
  <defs>
    <style>
      .cls-1 {
        fill: #ededed;
        stroke-width: 0px;
      }
    </style>
  </defs>
  <path class="cls-1" d="M256,0C114.6,0,0,114.6,0,256s114.6,256,256,256,256-114.6,256-256S397.4,0,256,0ZM415.8,415.7c-20.8,20.8-44.9,37.1-71.8,48.4-27.8,11.8-57.4,17.7-88,17.7s-60.1-6-88-17.7c-26.9-11.4-51.1-27.7-71.8-48.4-20.8-20.8-37.1-44.9-48.4-71.8-11.8-27.8-17.8-57.4-17.8-87.9s6-60.1,17.7-88c11.4-26.9,27.7-51.1,48.4-71.8,20.9-20.8,45-37.1,71.9-48.5,27.9-11.7,57.5-17.7,88-17.7s60.1,6,88,17.7c26.9,11.4,51.1,27.7,71.8,48.4,20.8,20.8,37.1,44.9,48.4,71.8,11.8,27.8,17.7,57.4,17.7,88s-6,60.1-17.7,88c-11.4,26.9-27.7,51.1-48.4,71.8Z"/>
  <rect class="cls-1" x="291.6" y="182.3" width="67.8" height="19.7"/>
  <path class="cls-1" d="M373.6,235.8c-5.3-7.9-12-13.7-20.2-17.3-8.1-3.7-17.3-5.5-27.6-5.4-17.1,0-31,5.4-41.8,16.2-10.7,10.8-16.1,26.3-16.1,46.6s6,37.2,17.9,46.8c11.9,9.6,25.6,14.4,41.2,14.4s33.5-5.7,44-17.1c6.7-7.2,10.5-14.3,11.3-21.2h-31.2c-1.8,3.5-3.9,6.2-6.3,8.1-4.4,3.6-10.1,5.4-17,5.4s-12.2-1.5-16.9-4.4c-7.7-4.7-11.7-13-12.2-24.7h85.2c.2-10.1-.2-17.8-1-23.2-1.4-9.2-4.5-17.3-9.3-24.2ZM299.5,263c1.2-7.6,3.9-13.6,8.2-18.1,4.3-4.4,10.4-6.7,18.2-6.7s13.3,2.1,18.2,6.3c4.8,4.2,7.5,10.4,8.1,18.5h-52.7Z"/>
  <path class="cls-1" d="M233.3,248.3c5.3-2.7,9.4-5.7,12.1-9,4.9-5.9,7.3-13.7,7.3-23.3s-2.4-17.5-7.2-24.2c-8.1-11-21.8-16.6-41-16.9h-76.5v158.3h71.2c8.1,0,15.5-.7,22.4-2.1,6.9-1.5,12.9-4.1,17.9-8,4.5-3.3,8.2-7.5,11.2-12.4,4.8-7.4,7.1-15.8,7.1-25.2s-2.1-16.8-6.2-23.2c-4.1-6.4-10.2-11-18.3-14ZM159.5,202.4h34.4c7.6,0,13.8.9,18.7,2.5,5.7,2.4,8.5,7.2,8.5,14.6s-2.1,11.3-6.4,13.9c-4.3,2.6-9.8,3.9-16.7,3.9h-38.5v-34.9ZM214,302.8c-3.8,1.9-9.1,2.8-16,2.8h-38.5v-42.2h39c6.8.1,12,1,15.8,2.7,6.8,3.1,10.1,8.8,10.1,17,0,9.7-3.4,16.2-10.4,19.7Z"/>
</svg>