<?xml version="1.0" encoding="UTF-8"?>
<svg id="Layer_1" data-name="Layer 1" xmlns="http://www.w3.org/2000/svg" version="1.1" viewBox="0 0 844 846">
  <defs>
    <style>
      .cls-1 {
        fill: none;
        stroke: #ededed;
        stroke-miterlimit: 10;
        stroke-width: 40px;
      }

      .cls-2 {
        fill: #ededed;
        stroke-width: 0px;
      }
    </style>
  </defs>
  <path class="cls-1" d="M422,24C201.4,24,22,203.4,22,424s179.4,400,400,400,400-179.4,400-400S642.6,24,422,24Z"/>
  <path class="cls-2" d="M204.7,515.3l209.5-209.5c1.9-1.9,4.4-2.7,7.2-2.7l.2-7.1v7.8h.3c2.7,0,5.3.6,7.2,2.5l209.8,209.6c4,3.9,4,10.3,0,14.2l-17.1,17c-3.8,3.8-10.6,3.8-14.4,0l-180.6-180.6c-2.7-2.8-7.6-2.8-10.4,0l-180.2,180.2c-3.8,3.8-10.6,3.8-14.4,0l-17-17.1c-4-4-4-10.4,0-14.4h-.1Z"/>
</svg>