<?xml version="1.0" encoding="UTF-8"?>
<svg id="Layer_1" data-name="Layer 1" xmlns="http://www.w3.org/2000/svg" version="1.1" viewBox="0 0 800 800">
  <defs>
    <style>
      .cls-1 {
        fill: #ededed;
        stroke-width: 0px;
      }
    </style>
  </defs>
  <path class="cls-1" d="M400,0C179.1,0,0,179.1,0,400s179.1,400,400,400,400-179.1,400-400S620.9,0,400,0ZM649.7,649.5c-32.5,32.5-70.2,58-112.2,75.6-43.4,18.4-89.7,27.7-137.5,27.7s-93.9-9.4-137.5-27.7c-42-17.8-79.8-43.3-112.2-75.6-32.5-32.5-58-70.2-75.6-112.2-18.4-43.4-27.8-89.7-27.8-137.3s9.4-93.9,27.7-137.5c17.8-42,43.3-79.8,75.6-112.2,32.7-32.5,70.3-58,112.3-75.8,43.6-18.3,89.8-27.7,137.5-27.7s93.9,9.4,137.5,27.7c42,17.8,79.8,43.3,112.2,75.6,32.5,32.5,58,70.2,75.6,112.2,18.4,43.4,27.7,89.7,27.7,137.5s-9.4,93.9-27.7,137.5c-17.8,42-43.3,79.8-75.6,112.2Z"/>
  <path class="cls-1" d="M574.2,322.2c1.4-31.4-2.8-61.9-13.4-91.6-1.4-3.7-3.1-5.2-7-4.1-8.8,2.7-17.8,4.7-26.4,7.8-23.7,8.6-45.5,21.1-66.6,34.7-2.2,1.4-5.5,2.3-8.1,1.9-34.5-6.1-69.2-5.8-103.9-.5-3.4.5-7.8-.3-10.6-2-24.5-15.9-49.5-31.6-78.1-39.1-23.6-6.2-18.8-7.5-25.5,13.9-8,25.6-11.1,52.2-9.4,79.1.2,1.9-1.3,4.2-2.5,5.9-10.3,12.3-18.3,25.9-23.1,41.2-9.4,29.7-7.5,59.7-1.6,89.5,11.7,58.6,51.2,99.7,109.7,109.8,30.2,5.3,61.3,5.8,89.5,8.1,31.6-2.3,60.8-2.5,89.2-7,49.7-8,87.2-34.4,105.9-82.3,6.6-16.7,10.2-35,12.3-52.8,4.8-39.4-1.9-76.2-28.7-107.3-.9-1.3-1.7-3.4-1.7-5.3ZM548.6,490.8c-5.2,24.4-19.4,41.1-43.1,49.7-23,8.4-46.7,11.9-70.9,13.4-11.7.8-23.4.2-35.2.2-31.6.6-63.1-.6-93.6-9.7-38.3-11.4-55.5-34.2-56.6-74.2-.5-14.2,1.1-28,7.8-40.8,13.3-25.8,36.3-34.8,63.4-35.3,14.8-.2,29.8,1.1,44.8,2.5,31.4,2.8,62.5-.2,93.8-1.9,13.8-.8,27.8-1.1,41.2,1.2,28.9,5,50.8,33.8,51.3,66.1,0,9.5-1.1,19.4-3,28.8Z"/>
  <path class="cls-1" d="M311.1,437.2c-8.6,8.9-11.6,20.2-12,30.2,0,15,4.4,27,12,34.8,10.6,10.8,25.2,10.5,35.3-.5,15.3-16.6,15.2-47.7,0-64.1-10.2-11.1-25-11.2-35.3-.5Z"/>
  <path class="cls-1" d="M455,435.9c-17.5,16.1-17.5,51.6,0,67.5,10.2,9.2,23.9,8.8,33.4-1.1,8.8-9.1,11.9-20.5,12.2-32.8-.3-12.3-3.4-23.6-12.3-32.7-9.5-9.8-23.3-10.2-33.3-.9Z"/>
</svg>