<?xml version="1.0" encoding="UTF-8"?>
<svg xmlns="http://www.w3.org/2000/svg" version="1.1" viewBox="0 0 600 112.9">
  <defs>
    <style>
      .cls-1 {
        fill: #0a0a0a;
        stroke: #231f20;
        stroke-miterlimit: 10;
      }

      .cls-2 {
        fill: #fff;
      }

      .cls-2, .cls-3 {
        stroke-width: 0px;
      }

      .cls-4 {
        display: none;
      }

      .cls-3 {
        fill: #47cca5;
      }
    </style>
  </defs>
  <g id="Background" class="cls-4">
    <rect class="cls-1" x="-.2" y=".4" width="600" height="112.2"/>
  </g>
  <g id="Text">
    <path class="cls-2" d="M9.3,47.9c3.3-6.1,7.8-10.9,13.5-14.2,5.7-3.4,12-5.1,18.8-5.1s11.6,1.2,16.2,3.6c4.6,2.4,8.3,5.5,11.1,9.1v-11.4h16.5v78.9h-16.5v-11.7c-2.8,3.7-6.5,6.8-11.3,9.3-4.8,2.5-10.2,3.7-16.3,3.7s-13-1.7-18.6-5.2c-5.6-3.5-10.1-8.3-13.4-14.6-3.3-6.2-4.9-13.3-4.9-21.3s1.6-14.9,4.9-21ZM65.5,55.1c-2.2-4-5.2-7.1-8.8-9.2-3.6-2.1-7.5-3.1-11.7-3.1s-8.1,1-11.7,3.1c-3.6,2.1-6.6,5.1-8.8,9-2.2,4-3.4,8.7-3.4,14.1s1.1,10.2,3.4,14.3c2.2,4.1,5.2,7.2,8.9,9.4,3.7,2.1,7.6,3.2,11.7,3.2s8.1-1,11.7-3.1c3.6-2.1,6.6-5.2,8.8-9.2,2.2-4.1,3.4-8.8,3.4-14.2s-1.1-10.2-3.4-14.2Z"/>
    <path class="cls-2" d="M123.1,2.8v105.9h-16.3V2.8h16.3Z"/>
    <path class="cls-2" d="M216.3,75.4h-60.3c.5,6.3,2.8,11.4,7,15.2,4.2,3.8,9.3,5.7,15.5,5.7,8.8,0,15-3.7,18.6-11h17.6c-2.4,7.3-6.7,13.2-13,17.8-6.2,4.6-14,6.9-23.3,6.9s-14.3-1.7-20.3-5.1c-6-3.4-10.6-8.2-14-14.3-3.4-6.2-5.1-13.3-5.1-21.4s1.6-15.2,4.9-21.4c3.3-6.2,7.9-10.9,13.9-14.2,6-3.3,12.8-5,20.5-5s14.1,1.6,19.9,4.9c5.8,3.2,10.4,7.8,13.6,13.7,3.2,5.9,4.9,12.6,4.9,20.3s-.2,5.6-.6,8ZM199.8,62.2c0-6-2.2-10.8-6.4-14.5-4.2-3.6-9.4-5.4-15.6-5.4s-10.4,1.8-14.5,5.4c-4,3.6-6.4,8.4-7.2,14.5h43.7Z"/>
    <path class="cls-3" d="M246.9,105c-6-3.4-10.7-8.2-14.2-14.3-3.4-6.2-5.2-13.3-5.2-21.4s1.8-15.1,5.3-21.3c3.5-6.2,8.3-11,14.5-14.3,6.1-3.3,12.9-5,20.5-5s14.4,1.7,20.5,5c6.1,3.3,10.9,8.1,14.5,14.3,3.5,6.2,5.3,13.3,5.3,21.3s-1.8,15.1-5.4,21.3c-3.6,6.2-8.6,11-14.8,14.4-6.2,3.4-13.1,5.1-20.7,5.1s-14.2-1.7-20.2-5.1ZM278.9,92.9c3.7-2,6.7-5,8.9-9,2.3-4,3.4-8.9,3.4-14.6s-1.1-10.6-3.3-14.5c-2.2-4-5.1-6.9-8.7-8.9-3.6-2-7.5-3-11.7-3s-8.1,1-11.7,3c-3.6,2-6.4,5-8.5,8.9-2.1,4-3.1,8.8-3.1,14.5,0,8.5,2.2,15.1,6.5,19.7,4.3,4.6,9.8,6.9,16.4,6.9s8.1-1,11.8-3Z"/>
    <path class="cls-3" d="M343.2,43.2v43.7c0,3,.7,5.1,2.1,6.4,1.4,1.3,3.7,1.9,7.1,1.9h10v13.6h-12.9c-7.3,0-13-1.7-16.9-5.2-3.9-3.4-5.9-9-5.9-16.7v-43.7h-9.3v-13.3h9.3V10.3h16.5v19.6h19.2v13.3h-19.2Z"/>
    <path class="cls-3" d="M449.1,75.4h-60.3c.5,6.3,2.8,11.4,7,15.2,4.2,3.8,9.3,5.7,15.5,5.7,8.8,0,15-3.7,18.6-11h17.6c-2.4,7.3-6.7,13.2-13,17.8-6.2,4.6-14,6.9-23.3,6.9s-14.3-1.7-20.3-5.1c-6-3.4-10.6-8.2-14-14.3-3.4-6.2-5.1-13.3-5.1-21.4s1.6-15.2,4.9-21.4c3.3-6.2,7.9-10.9,13.9-14.2,6-3.3,12.8-5,20.5-5s14.1,1.6,19.9,4.9c5.8,3.2,10.4,7.8,13.6,13.7,3.2,5.9,4.9,12.6,4.9,20.3s-.2,5.6-.6,8ZM432.7,62.2c0-6-2.2-10.8-6.4-14.5-4.2-3.6-9.4-5.4-15.6-5.4s-10.4,1.8-14.5,5.4c-4,3.6-6.4,8.4-7.2,14.5h43.6Z"/>
    <path class="cls-3" d="M491.6,32c4-2.2,8.7-3.4,14.1-3.4v16.9h-4.2c-6.4,0-11.2,1.6-14.5,4.9-3.3,3.2-4.9,8.9-4.9,16.9v41.5h-16.3V29.9h16.3v11.4c2.4-4,5.6-7.1,9.5-9.4Z"/>
    <path class="cls-3" d="M534.7,105c-6-3.4-10.7-8.2-14.2-14.3-3.4-6.2-5.2-13.3-5.2-21.4s1.8-15.1,5.3-21.3c3.5-6.2,8.3-11,14.5-14.3,6.1-3.3,12.9-5,20.5-5s14.4,1.7,20.5,5c6.1,3.3,10.9,8.1,14.5,14.3,3.5,6.2,5.3,13.3,5.3,21.3s-1.8,15.1-5.4,21.3c-3.6,6.2-8.6,11-14.8,14.4-6.2,3.4-13.1,5.1-20.7,5.1s-14.2-1.7-20.2-5.1ZM566.7,92.9c3.7-2,6.7-5,8.9-9,2.3-4,3.4-8.9,3.4-14.6s-1.1-10.6-3.3-14.5c-2.2-4-5.1-6.9-8.7-8.9-3.6-2-7.5-3-11.7-3s-8.1,1-11.7,3c-3.6,2-6.4,5-8.5,8.9-2.1,4-3.1,8.8-3.1,14.5,0,8.5,2.2,15.1,6.5,19.7,4.3,4.6,9.8,6.9,16.4,6.9s8.1-1,11.8-3Z"/>
  </g>
</svg>