<?xml version="1.0" encoding="UTF-8"?>
<svg id="Capa_1" data-name="Capa 1" xmlns="http://www.w3.org/2000/svg" version="1.1" viewBox="0 0 600 92.7">
  <defs>
    <style>
      .cls-1 {
        fill: #0a0a0a;
        stroke: #231f20;
        stroke-miterlimit: 10;
      }

      .cls-2 {
        fill: #fff;
        stroke-width: 0px;
      }

      .cls-3 {
        display: none;
      }
    </style>
  </defs>
  <g id="Background" class="cls-3">
    <rect class="cls-1" x="-.2" y="1" width="600" height="91.8"/>
  </g>
  <g>
    <g>
      <path class="cls-2" d="M38.3,6.1L6.9,90.8H1.6L34.9,2.3h4.1l-.6,3.8ZM60.3,60.5v4.6H15v-4.6h45.4ZM68.1,90.8L36.7,6.1l-.6-3.8h4l33.3,88.5h-5.3Z"/>
      <path class="cls-2" d="M92.1,2.3v88.5h-5V2.3h5ZM136.8,86.3v4.5h-46.9v-4.5h46.9Z"/>
      <path class="cls-2" d="M156.8,2.3v88.5h-4.9V2.3h4.9ZM206.1,2.3v4.5h-51.5V2.3h51.5ZM200,43v4.6h-45.4v-4.6h45.4ZM206.2,86.3v4.5h-51.6v-4.5h51.6Z"/>
    </g>
    <g>
      <path class="cls-2" d="M291.1,44.1v4.9c0,6.7-.9,12.7-2.6,18-1.7,5.3-4.2,9.8-7.4,13.5-3.2,3.7-7.1,6.6-11.6,8.5-4.5,2-9.5,2.9-14.9,2.9s-10.4-1-14.9-2.9c-4.5-2-8.4-4.8-11.6-8.5-3.3-3.7-5.8-8.2-7.6-13.5-1.8-5.3-2.7-11.3-2.7-18v-4.9c0-6.7.9-12.7,2.7-18,1.8-5.3,4.3-9.8,7.6-13.5,3.3-3.7,7.1-6.6,11.6-8.6,4.5-2,9.4-2.9,14.9-2.9s10.5,1,14.9,2.9c4.5,2,8.4,4.8,11.6,8.6,3.2,3.7,5.7,8.3,7.5,13.5,1.8,5.3,2.6,11.3,2.6,18ZM275.8,49v-5c0-4.9-.5-9.3-1.4-13.1-1-3.8-2.3-7-4.2-9.5-1.8-2.6-4.1-4.5-6.8-5.8-2.7-1.3-5.7-2-9.1-2s-6.4.7-9,2c-2.6,1.3-4.9,3.3-6.7,5.8-1.8,2.6-3.3,5.8-4.2,9.5-1,3.8-1.5,8.2-1.5,13.1v5c0,4.9.5,9.3,1.5,13.1,1,3.8,2.4,7,4.3,9.6,1.9,2.6,4.1,4.6,6.8,5.9,2.6,1.3,5.6,2,9,2s6.4-.7,9.1-2c2.6-1.3,4.9-3.3,6.7-5.9,1.8-2.6,3.2-5.8,4.2-9.6,1-3.8,1.4-8.2,1.4-13.1Z"/>
      <path class="cls-2" d="M367.5,2.3v12.2h-70.4V2.3h70.4ZM339.8,2.3v88.5h-15.1V2.3h15.1Z"/>
      <path class="cls-2" d="M394.4,2.3v88.5h-15.3V2.3h15.3ZM436.8,2.3v12.2h-46.7V2.3h46.7ZM431,39.3v11.9h-40.8v-11.9h40.8ZM437.1,78.7v12.1h-47v-12.1h47Z"/>
      <path class="cls-2" d="M449.5,2.3h31.3c6.7,0,12.5,1,17.2,3,4.7,2,8.4,5,10.9,9,2.5,3.9,3.8,8.8,3.8,14.6s-.8,8.3-2.4,11.7c-1.6,3.4-3.9,6.2-6.9,8.5-3,2.3-6.5,4.1-10.6,5.3l-4.6,2.2h-28.1v-12.1c-.1,0,21,0,21,0,3.6,0,6.7-.6,9.1-1.9,2.4-1.3,4.3-3.1,5.5-5.3,1.2-2.2,1.9-4.8,1.9-7.6s-.6-5.8-1.8-8.1c-1.2-2.3-3-4-5.5-5.3-2.5-1.2-5.6-1.9-9.4-1.9h-16v76.3h-15.3V2.3ZM500,90.8l-20.8-39.7h16c0,0,21.1,38.9,21.1,38.9v.8h-16.3Z"/>
      <path class="cls-2" d="M598.4,44.1v4.9c0,6.7-.9,12.7-2.6,18-1.7,5.3-4.2,9.8-7.4,13.5-3.2,3.7-7.1,6.6-11.6,8.5-4.5,2-9.5,2.9-14.9,2.9s-10.4-1-14.9-2.9c-4.5-2-8.4-4.8-11.6-8.5-3.3-3.7-5.8-8.2-7.6-13.5-1.8-5.3-2.7-11.3-2.7-18v-4.9c0-6.7.9-12.7,2.7-18s4.3-9.8,7.6-13.5c3.3-3.7,7.1-6.6,11.6-8.6,4.5-2,9.4-2.9,14.9-2.9s10.5,1,14.9,2.9c4.5,2,8.4,4.8,11.6,8.6,3.2,3.7,5.7,8.3,7.5,13.5s2.6,11.3,2.6,18ZM583.1,49v-5c0-4.9-.5-9.3-1.4-13.1-1-3.8-2.3-7-4.2-9.5-1.8-2.6-4.1-4.5-6.8-5.8-2.7-1.3-5.7-2-9.1-2s-6.4.7-9,2c-2.6,1.3-4.9,3.3-6.7,5.8-1.8,2.6-3.3,5.8-4.2,9.5-1,3.8-1.5,8.2-1.5,13.1v5c0,4.9.5,9.3,1.5,13.1,1,3.8,2.4,7,4.3,9.6,1.9,2.6,4.1,4.6,6.8,5.9,2.6,1.3,5.6,2,9,2s6.4-.7,9.1-2c2.6-1.3,4.9-3.3,6.7-5.9,1.8-2.6,3.2-5.8,4.2-9.6,1-3.8,1.4-8.2,1.4-13.1Z"/>
    </g>
  </g>
</svg>