<?xml version="1.0" encoding="UTF-8"?>
<svg id="Capa_1" data-name="Capa 1" xmlns="http://www.w3.org/2000/svg" version="1.1" viewBox="0 0 502 502">
  <defs>
    <style>
      .cls-1 {
        fill: none;
        stroke: #ededed;
        stroke-dasharray: 0 0 0 0 0 0 1 50 1 50 1 50;
        stroke-linecap: round;
        stroke-linejoin: round;
        stroke-width: 14px;
      }

      .cls-2 {
        fill: #ededed;
        stroke-width: 0px;
      }
    </style>
  </defs>
  <g id="Circulo">
    <circle id="animateCircle" class="cls-1" cx="251" cy="251" r="244"/>
  </g>
  <g>
    <path class="cls-2" d="M63.4,270.1v-45.3h17.7c4,0,7.4.6,10.2,1.9,2.8,1.3,5,3.1,6.5,5.4,1.5,2.4,2.3,5.2,2.3,8.5s-.8,6.1-2.3,8.5c-1.5,2.4-3.7,4.2-6.5,5.4-2.8,1.3-6.2,1.9-10.2,1.9h-14.1l2.9-3v16.8h-6.5ZM69.9,254l-2.9-3.2h13.9c4.1,0,7.3-.9,9.4-2.7,2.1-1.8,3.2-4.3,3.2-7.5s-1.1-5.7-3.2-7.5c-2.1-1.8-5.3-2.7-9.4-2.7h-13.9l2.9-3.2v26.8Z"/>
    <path class="cls-2" d="M130.6,270.7c-3.5,0-6.7-.6-9.6-1.7-3-1.2-5.5-2.8-7.7-4.9-2.2-2.1-3.8-4.5-5.1-7.4-1.2-2.8-1.8-5.9-1.8-9.2s.6-6.4,1.8-9.2c1.2-2.8,2.9-5.3,5.1-7.4,2.2-2.1,4.7-3.7,7.6-4.9,2.9-1.2,6.2-1.7,9.6-1.7s6.6.6,9.6,1.7c2.9,1.1,5.5,2.8,7.6,4.9,2.2,2.1,3.8,4.6,5,7.4,1.2,2.8,1.8,5.9,1.8,9.2s-.6,6.5-1.8,9.3c-1.2,2.8-2.9,5.3-5,7.3-2.2,2.1-4.7,3.7-7.6,4.9-2.9,1.1-6.1,1.7-9.6,1.7ZM130.5,264.9c2.5,0,4.9-.4,7-1.3,2.1-.9,4-2.1,5.6-3.7s2.8-3.4,3.7-5.5c.9-2.1,1.3-4.4,1.3-6.9s-.4-4.8-1.3-6.9c-.9-2.1-2.1-3.9-3.7-5.5-1.6-1.6-3.4-2.8-5.6-3.7-2.1-.9-4.5-1.3-7-1.3s-4.8.4-7,1.3c-2.1.9-4,2.1-5.6,3.7s-2.8,3.4-3.7,5.5c-.9,2.1-1.3,4.4-1.3,6.9s.4,4.8,1.3,6.9c.9,2.1,2.1,4,3.7,5.5,1.6,1.6,3.5,2.8,5.6,3.7,2.1.9,4.5,1.3,7,1.3Z"/>
    <path class="cls-2" d="M164.5,270.1v-45.3h17.7c4,0,7.4.6,10.2,1.9,2.8,1.3,5,3.1,6.5,5.4,1.5,2.4,2.3,5.2,2.3,8.5s-.8,6.1-2.3,8.5c-1.5,2.4-3.7,4.2-6.5,5.4-2.8,1.3-6.2,1.9-10.2,1.9h-14.1l2.9-3v16.8h-6.5ZM171,254l-2.9-3.2h13.9c4.1,0,7.3-.9,9.4-2.7,2.1-1.8,3.2-4.3,3.2-7.5s-1.1-5.7-3.2-7.5c-2.1-1.8-5.3-2.7-9.4-2.7h-13.9l2.9-3.2v26.8ZM194.9,270.1l-11.5-16.4h6.9l11.7,16.4h-7.1Z"/>
    <path class="cls-2" d="M220,270.1v-39.7h-15.5v-5.6h37.5v5.6h-15.5v39.7h-6.4Z"/>
    <path class="cls-2" d="M255.5,270.1h-6.5v-45.3h32v5.6h-25.5v39.7ZM254.8,246.2h23.4v5.6h-23.4v-5.6Z"/>
    <path class="cls-2" d="M310.1,270.7c-3.5,0-6.7-.6-9.6-1.7-3-1.2-5.5-2.8-7.7-4.9-2.2-2.1-3.8-4.5-5.1-7.4-1.2-2.8-1.8-5.9-1.8-9.2s.6-6.4,1.8-9.2c1.2-2.8,2.9-5.3,5.1-7.4,2.2-2.1,4.7-3.7,7.6-4.9,2.9-1.2,6.2-1.7,9.6-1.7s6.6.6,9.6,1.7c2.9,1.1,5.5,2.8,7.6,4.9,2.2,2.1,3.8,4.6,5,7.4,1.2,2.8,1.8,5.9,1.8,9.2s-.6,6.5-1.8,9.3-2.9,5.3-5,7.3c-2.2,2.1-4.7,3.7-7.6,4.9-2.9,1.1-6.1,1.7-9.6,1.7ZM310,264.9c2.5,0,4.9-.4,7-1.3,2.1-.9,4-2.1,5.6-3.7,1.6-1.6,2.8-3.4,3.7-5.5.9-2.1,1.3-4.4,1.3-6.9s-.4-4.8-1.3-6.9c-.9-2.1-2.1-3.9-3.7-5.5-1.6-1.6-3.4-2.8-5.6-3.7-2.1-.9-4.5-1.3-7-1.3s-4.8.4-7,1.3c-2.1.9-4,2.1-5.6,3.7s-2.8,3.4-3.7,5.5c-.9,2.1-1.3,4.4-1.3,6.9s.4,4.8,1.3,6.9c.9,2.1,2.1,4,3.7,5.5,1.6,1.6,3.5,2.8,5.6,3.7,2.1.9,4.5,1.3,7,1.3Z"/>
    <path class="cls-2" d="M344,270.1v-45.3h6.5v39.7h24.5v5.6h-31Z"/>
    <path class="cls-2" d="M382.5,270.1v-45.3h6.5v45.3h-6.5Z"/>
    <path class="cls-2" d="M423,270.7c-3.5,0-6.7-.6-9.6-1.7-3-1.2-5.5-2.8-7.7-4.9-2.2-2.1-3.8-4.5-5.1-7.4-1.2-2.8-1.8-5.9-1.8-9.2s.6-6.4,1.8-9.2c1.2-2.8,2.9-5.3,5.1-7.4,2.2-2.1,4.7-3.7,7.6-4.9,2.9-1.2,6.2-1.7,9.6-1.7s6.6.6,9.6,1.7c2.9,1.1,5.5,2.8,7.6,4.9,2.2,2.1,3.8,4.6,5,7.4,1.2,2.8,1.8,5.9,1.8,9.2s-.6,6.5-1.8,9.3-2.9,5.3-5,7.3c-2.2,2.1-4.7,3.7-7.6,4.9-2.9,1.1-6.1,1.7-9.6,1.7ZM422.9,264.9c2.5,0,4.9-.4,7-1.3,2.1-.9,4-2.1,5.6-3.7,1.6-1.6,2.8-3.4,3.7-5.5.9-2.1,1.3-4.4,1.3-6.9s-.4-4.8-1.3-6.9c-.9-2.1-2.1-3.9-3.7-5.5-1.6-1.6-3.4-2.8-5.6-3.7-2.1-.9-4.5-1.3-7-1.3s-4.8.4-7,1.3c-2.1.9-4,2.1-5.6,3.7s-2.8,3.4-3.7,5.5c-.9,2.1-1.3,4.4-1.3,6.9s.4,4.8,1.3,6.9c.9,2.1,2.1,4,3.7,5.5,1.6,1.6,3.5,2.8,5.6,3.7,2.1.9,4.5,1.3,7,1.3Z"/>
  </g>
</svg>